<?xml version="1.0" encoding="utf-8"?>
<!-- Generator: Adobe Illustrator 24.1.0, SVG Export Plug-In . SVG Version: 6.00 Build 0)  -->
<svg version="1.1" id="Layer_1" xmlns="http://www.w3.org/2000/svg" xmlns:xlink="http://www.w3.org/1999/xlink" x="0px" y="0px"
	 viewBox="0 0 10.7 22.1" style="enable-background:new 0 0 10.7 22.1;" xml:space="preserve">
<style type="text/css">
	.st0{clip-path:url(#SVGID_2_);fill:#FFFFFF;}
</style>
<g>
	<defs>
		<rect id="SVGID_1_" width="10.7" height="22.1"/>
	</defs>
	<clipPath id="SVGID_2_">
		<use xlink:href="#SVGID_1_"  style="overflow:visible;"/>
	</clipPath>
	<path class="st0" d="M0,6.4h2.3V5.2c0-1.3,0.1-2.3,0.4-3C3,1.5,3.5,1,4.3,0.6C5.1,0.2,6,0,7.2,0c1.2,0,2.3,0.2,3.5,0.5l-0.6,2.9
		C9.4,3.3,8.8,3.2,8.2,3.2c-0.6,0-1,0.1-1.3,0.4C6.6,3.9,6.5,4.5,6.5,5.2v1.1h3.1v3.3H6.5v12.5H2.3V9.6H0V6.4z"/>
</g>
</svg>
