<?xml version="1.0" encoding="utf-8"?>
<!-- Generator: Adobe Illustrator 24.1.0, SVG Export Plug-In . SVG Version: 6.00 Build 0)  -->
<svg version="1.1" id="Layer_1" xmlns="http://www.w3.org/2000/svg" xmlns:xlink="http://www.w3.org/1999/xlink" x="0px" y="0px"
	 viewBox="0 0 18 18" style="enable-background:new 0 0 18 18;" xml:space="preserve">
<style type="text/css">
	.st0{clip-path:url(#SVGID_2_);fill:#FCFCFC;}
</style>
<g>
	<defs>
		<rect id="SVGID_1_" width="18" height="18"/>
	</defs>
	<clipPath id="SVGID_2_">
		<use xlink:href="#SVGID_1_"  style="overflow:visible;"/>
	</clipPath>
	<path class="st0" d="M15.9,14.9c0,0.8-0.2,1.1-1.1,1.1H9H3.1c-0.8,0-1.1-0.2-1.1-1.1c0-2.2,0-4.4,0-6.6c0-0.6,0.2-0.8,0.8-0.7
		c0.8,0.1,0.8,0,0.7,0.8c-0.3,2.8,1.6,5.5,4.4,6c2.8,0.5,5.6-1.2,6.4-3.9c0.2-0.8,0.3-1.7,0.1-2.6c-0.1-0.3,0-0.4,0.3-0.4
		c1.2-0.1,1.2-0.1,1.2,1.2V14.9z M9,5.5c1.9,0,3.5,1.6,3.5,3.5c0,1.9-1.6,3.5-3.5,3.5s-3.5-1.6-3.5-3.5C5.5,7.1,7.1,5.5,9,5.5
		 M14.2,2c1.8,0,1.8,0,1.8,1.8c0,1.7,0,1.7-1.7,1.7c-1.8,0-1.8,0-1.8-1.8C12.4,2,12.4,2,14.2,2 M15.6,0H2.4C0.8,0,0,0.8,0,2.4V9v6.6
		C0,17.1,0.8,18,2.3,18h13.3c1.5,0,2.4-0.8,2.4-2.4V2.4C18,0.8,17.2,0,15.6,0"/>
</g>
</svg>
